<svg xmlns="http://www.w3.org/2000/svg"  viewBox="0 0 40 40" width="160px" height="160px"><path fill="#c2e8ff" d="M24.011,26.718l0.489,0.489v-6l1,1V10.573l-6,0.939v12.605l0.691,1.382h-4.383l0.691-1.382v-11.29 l-0.8,0.6c-0.882,0.661-2.627,1.318-3.805,1.57L11.5,15.083v7.035l0.691,1.382H7.809L8.5,22.118v-6.819l-0.226-0.147 c-0.355-0.232-0.739-0.472-1.116-0.706c-0.768-0.479-1.819-1.133-1.999-1.401c-0.24-0.302-0.412-0.568-0.539-0.838 c0.252-0.151,0.537-0.316,0.827-0.476c-0.074,0.104-0.146,0.218-0.217,0.343L5.081,12.34l0.17,0.255 c0.224,0.336,0.496,0.543,0.757,0.717c0.67,0.419,1.717,1.105,1.718,1.106L8.5,14.926V3.882L7.809,2.5h4.383L11.5,3.882v10.76 l0.622-0.156c0.464-0.117,3.383-1.77,4.19-2.415l0.188-0.15V2.882L15.809,1.5h4.383L19.5,2.882v7.67l6-0.59V6.5h3v2.831 l0.646-0.199c0.724-0.222,1.513-0.354,2.034-0.441c0.241-0.04,0.428-0.072,0.533-0.099l0.055-0.014l0.05-0.025 c0.035-0.015,0.147-0.035,0.309-0.046c0.42,0.513,0.806,1.08,1.181,1.631c0.433,0.637,0.881,1.295,1.394,1.894 c0.049,0.066,0.123,0.157,0.199,0.25c0.188,0.231,0.366,0.449,0.46,0.684c0.134,0.273,0.167,0.484,0.116,0.684l-0.012,0.05 l-0.003,0.051c-0.064,1.504-0.162,2.592-0.286,3.97l-0.097,1.091c-0.021,0.123-0.08,0.369-0.118,0.524 c-0.445,0.404-0.901,0.542-1.626,0.759c-0.389,0.128-1.109,0.266-2.094,0.408c-0.193-0.196-0.367-0.383-0.53-0.566l0.277,0.016 c0.398,0,1.512-0.922,1.512-1.346V10c0-0.356-0.274-0.622-0.421-0.766c-0.263-0.259-0.521-0.259-0.633-0.259l-0.181,0.01 c-0.154,0.03-0.426,0.065-0.74,0.107c-0.517,0.068-1.159,0.152-1.634,0.258L28.5,9.438v14.355l-1-1v7l-1-1v6.637L24.011,26.718z"/><path fill="#7496c4" d="M19.382,2l-0.276,0.553L19,2.764V3v7v1.085v0.856V24v0.236l0.106,0.211L19.382,25h-2.764 l0.276-0.553L17,24.236V24V13.828v-2V11.68V3V2.764l-0.106-0.211L16.618,2H19.382 M11.382,3l-0.276,0.553L11,3.764V4v10v1.281 v0.206V22v0.236l0.106,0.211L11.382,23H8.618l0.276-0.553L9,22.236V22v-6.43v-0.54V14V4V3.764L8.894,3.553L8.618,3H11.382 M28,7 v1.654v1.354v5.997v2.68v3.901l-1-1V24v4.586l-1-1V30v1.86l-1-3.5V26v-3.586l1,1V21v-9.843v-0.742V9.509V7H28 M33,10.575 c0.403,0.591,0.822,1.195,1.301,1.757c0.067,0.088,0.139,0.177,0.212,0.266c0.163,0.2,0.318,0.389,0.383,0.552l0.015,0.039 l0.019,0.037c0.091,0.183,0.07,0.269,0.062,0.302l-0.024,0.098l-0.004,0.101c-0.065,1.494-0.162,2.578-0.286,3.951l-0.093,1.046 c-0.017,0.094-0.045,0.221-0.072,0.336c-0.312,0.245-0.659,0.356-1.322,0.555l-0.078,0.024c-0.097,0.032-0.351,0.104-0.937,0.208 C32.623,19.474,33,18.994,33,18.604V10.575 M21,1h-6l1,2v8.68c-0.826,0.661-3.67,2.237-4,2.32V4l1-2H7l1,2v10 c0,0-1.054-0.691-1.715-1.104c-0.248-0.165-0.453-0.33-0.618-0.578c0.424-0.757,0.975-1.054,1.357-1.57c0.083,0,0-0.165,0-0.248 C6.115,10.665,4,12,4,12c0.165,0.496,0.413,0.909,0.743,1.322C5.074,13.817,6.728,14.736,8,15.57V22l-1,2h6l-1-2v-6.513 c1.157-0.248,3.009-0.916,4-1.659V24l-1,2h6l-1-2V11.94l5-0.783V21l-1-1v6l-1-1l4,14v-9l1,1v-7l1,1v-6.315 c0.7,0.807,1.158,1.439,1.951,2.232C31.033,21,31.198,21,31.281,21c0.578-0.083,1.652-0.248,2.148-0.413 c0.826-0.248,1.404-0.413,1.983-0.991c0,0,0.126-0.504,0.165-0.743c0.165-1.9,0.303-3.181,0.385-5.081 c0.083-0.33,0.028-0.661-0.138-0.991c-0.165-0.413-0.496-0.743-0.744-1.074C34.09,10.549,33.346,9.157,32.355,8 c-0.248,0-0.596,0.023-0.761,0.106c-0.33,0.083-1.52,0.218-2.594,0.548V6h-4v3.509L20,10V3L21,1L21,1z M30.988,19.45 c-0.018,0-0.031-0.006-0.038-0.02c-0.82-0.742-1.484-1.423-1.951-1.91V9.839c0.743-0.165,1.951-0.281,2.364-0.364h0.083 c0.083,0,0.165,0,0.248,0.083S32,9.835,32,10c0,1.505,0,8.604,0,8.604C32,18.68,31.187,19.45,30.988,19.45L30.988,19.45z"/></svg>