<?xml version="1.0" encoding="utf-8"?>
<!-- Generator: Adobe Illustrator 18.0.0, SVG Export Plug-In . SVG Version: 6.00 Build 0)  -->
<!DOCTYPE svg PUBLIC "-//W3C//DTD SVG 1.1//EN" "http://www.w3.org/Graphics/SVG/1.1/DTD/svg11.dtd">
<svg version="1.1" id="Camada_1" xmlns="http://www.w3.org/2000/svg" xmlns:xlink="http://www.w3.org/1999/xlink" x="0px" y="0px"
	 viewBox="0 0 1000 1000" enable-background="new 0 0 1000 1000" xml:space="preserve">
<g>
	<circle fill="none" cx="499.8" cy="499.8" r="499.8"/>
	<g>
		<path fill="#fff" d="M412.3,376.2H475v195.5c0,10.7-2,20.3-6,28.6c-4,8.4-9.3,15.4-15.9,21.1c-6.6,5.7-14.3,10.1-23,13.3
			c-8.7,3.2-17.6,4.8-26.7,4.8H170.9c-9.4,0-18.4-1.6-27-4.8c-8.6-3.2-16.1-7.6-22.8-13.3c-6.6-5.7-11.9-12.7-15.9-21.1
			c-4-8.4-6-17.9-6-28.6V530H162c0,14.1,2.9,24.3,8.6,30.7c5.7,6.4,15.7,9.5,29.8,9.5h173.3c14.1,0,24.1-3.3,29.8-10
			c5.7-6.7,8.6-16.8,8.6-30.2V376.2z"/>
		<path fill="#fff" d="M584.3,540.5c-8.6,0-16.8-1.4-24.8-4.3c-8-2.8-15-6.9-21-12.3c-6-5.4-10.9-11.6-14.6-18.8c-3.7-7.2-5.5-15.2-5.5-23.9V444
			c0-10.4,2-19.9,6-28.4c4-8.5,9.3-15.7,15.9-21.4c6.6-5.7,14.2-10.1,22.8-13.3c8.5-3.2,17.5-4.8,27-4.8h304.2v68.9h-313v30.2h247.2
			c8.5,0,16.8,1.4,24.8,4.3c8,2.9,15,7,21,12.3c6,5.4,10.9,11.6,14.6,18.8c3.7,7.2,5.5,15.2,5.5,23.9v37.2c0,10.7-2,20.3-6,28.6
			c-4,8.4-9.3,15.4-15.9,21.1c-6.6,5.7-14.3,10.1-23,13.3c-8.7,3.2-17.6,4.8-26.7,4.8H518.4v-68.9h313v-30.2H584.3z"/>
	</g>
</g>
</svg>
